<svg id="Capa_1" enable-background="new 0 0 512 512" height="512" viewBox="0 0 512 512" width="512" xmlns="http://www.w3.org/2000/svg"><g><path d="m512 256c0 105.62-63.97 196.31-155.29 235.42-10.93 4.69-22.26-33.94-33.92-30.789-6.87 1.85-13.86 45.989-20.95 47.269-6.214 1.128-12.507 2.03-18.869 2.697-8.863.929-17.861-81.89-26.971-81.89-124.737 0-165.586-22.539-251.379-124.035-3.033-15.758-4.621-32.03-4.621-48.672 0-141.38 114.62-256 256-256s256 114.62 256 256z" fill="#da387d"/><g><circle cx="329.836" cy="149.616" fill="#f9f6f9" r="34.667"/><circle cx="325.192" cy="149.616" fill="#453d81" r="20.221"/><path d="m237.389 50.243c-20.937 0-37.91 16.973-37.91 37.91v45.891h75.819v-45.891c.001-20.937-16.972-37.91-37.909-37.91z" fill="#ac80dd"/><path d="m248.7 51.953c-15.42 4.82-26.61 19.21-26.61 36.2v45.89h-22.61v-45.89c0-20.93 16.97-37.91 37.91-37.91 3.94 0 7.73.6 11.31 1.71z" fill="#9d66d5"/><g><path d="m310.314 165.988-8.354-159.122c-.399-7.595-10.742-9.515-13.839-2.568l-64.895 145.528z" fill="#b1e4f9"/><g fill="#90d8f9"><path d="m296.05.128c-.812-.151-1.962 1.517-2.869 5.11l-38.043 150.511-31.912-5.923 64.888-145.529c1.551-3.473 4.919-4.729 7.936-4.169z"/><path d="m230.655 138.815c-3.965-.736-7.227-3.882-7.913-8.091-.873-5.361 2.765-10.415 8.126-11.289l75.286-12.269c5.363-.874 10.415 2.765 11.289 8.126s-2.765 10.415-8.126 11.289l-75.286 12.269c-1.152.187-2.29.166-3.376-.035z"/><path d="m252.849 89.065c-3.964-.736-7.226-3.882-7.912-8.09-.874-5.361 2.763-10.416 8.124-11.29l50.684-8.266c5.36-.874 10.415 2.763 11.29 8.124.874 5.361-2.763 10.416-8.124 11.29l-50.684 8.266c-1.153.188-2.292.167-3.378-.034z"/><path d="m275.034 39.312c-3.965-.736-7.227-3.883-7.913-8.092-.873-5.361 2.765-10.415 8.126-11.288l26.104-4.252c5.36-.875 10.415 2.765 11.288 8.126s-2.765 10.415-8.126 11.288l-26.104 4.252c-1.152.188-2.29.167-3.375-.034z"/></g></g><path d="m167.134 57.892c29.306 0 53.064 23.758 53.064 53.064s-23.758 53.064-53.064 53.064z" fill="#ffceec"/><path d="m266.48 184.59h-51.03c.14 1.88.24 3.78.24 5.69 0 37.45-28.15 68.3-64.44 72.59 1.04 4.91 1.59 9.99 1.59 15.21 0 32.48-21.2 60.01-50.51 69.53 6.13 11.76 9.61 25.12 9.61 39.29 0 23.83 17.652 18.248 1.882 33.698-8.64-7.64-15.878-5.7-23.408-14.43-5.13-5.95-38.314 4.832-42.894-1.578-20.93-29.31-35.83-63.22-42.89-99.92 2.1-.58 4.24-1.07 6.41-1.47-2.87-7.83-4.43-16.3-4.43-25.12 0-37.45 28.15-68.3 64.44-72.59-1.04-4.91-1.59-9.99-1.59-15.21 0-40.38 32.73-73.11 73.11-73.11h92.08c17.58 0 31.83 14.25 31.83 31.82z" fill="#ac80dd"/><path d="m120.33 190.28c0 5.22.56 10.3 1.6 15.21-36.29 4.29-64.45 35.14-64.45 72.59 0 8.82 1.57 17.29 4.44 25.12-20.08 3.75-37.68 14.54-50.14 29.72-2.91-9.2-5.3-18.63-7.15-28.25 2.1-.58 4.24-1.07 6.41-1.47-2.87-7.83-4.43-16.3-4.43-25.12 0-37.45 28.15-68.3 64.44-72.59-1.04-4.91-1.59-9.99-1.59-15.21 0-40.38 32.73-73.11 73.11-73.11h50.88c-40.38 0-73.12 32.73-73.12 73.11z" fill="#9d66d5"/><path d="m445.962 153.608h-269.92v100.46c0 51.21 41.52 92.729 92.73 92.729 19.55 0 37.69-6.05 52.64-16.38 12.867-8.891 23.368-20.95 30.396-35.051h73.32c5.269 7.696 14.113 12.751 24.144 12.751 8.07 0 15.39-3.27 20.68-8.57s8.57-12.609 8.57-20.689v-92.69c0-17.98-14.58-32.56-32.56-32.56z" fill="#ffddf1"/><path d="m282.97 304.03v206.56c-8.86.93-17.86 1.41-26.97 1.41-77.51 0-146.97-34.45-193.91-88.87l113.96-269.52z" fill="#ffddf1"/><path d="m197.67 294.87-84.84 173.38c-18.85-12.75-35.92-27.94-50.74-45.12-5.13-5.95-9.99-12.13-14.57-18.54l128.53-250.98 18.48 26z" fill="#ffceec"/><path d="m64.468 153.606c0 33.687 27.309 60.996 60.996 60.996s60.996-27.309 60.996-60.996z" fill="#ffceec"/><path d="m430.578 203.283c-6.097 0-11.039-4.942-11.039-11.039 0-6.097 4.942-11.039 11.039-11.039 6.097 0 11.039 4.942 11.039 11.039 0 6.097-4.942 11.039-11.039 11.039z" fill="#eaaadd"/><path d="m462.52 203.283c-6.097 0-11.039-4.942-11.039-11.039 0-6.097 4.942-11.039 11.039-11.039 6.097 0 11.039 4.942 11.039 11.039 0 6.097-4.943 11.039-11.039 11.039z" fill="#eaaadd"/><path d="m281.882 345.876c-4.28.61-8.66.92-13.11.92-51.21 0-92.73-41.52-92.73-92.73v-100.46h26.16v100.46c0 46.78 34.65 85.47 79.68 91.81z" fill="#ffceec"/><circle cx="250.358" cy="149.616" fill="#f9f6f9" r="34.667"/><circle cx="251.257" cy="149.616" fill="#453d81" r="20.221"/><path d="m423.55 271.106c-21.467 0-38.931-17.464-38.931-38.931 0-5.523 4.478-10 10-10s10 4.477 10 10c0 10.438 8.492 18.931 18.931 18.931s18.932-8.493 18.932-18.931c0-5.523 4.478-10 10-10s10 4.477 10 10c-.001 21.467-17.465 38.931-38.932 38.931z" fill="#eaaadd"/><circle cx="250.358" cy="195.206" fill="#ffddf1" r="34.667"/></g><g fill="#ffe07d"><path d="m116.254.354c-5.171 1.429-8.203 6.779-6.774 11.949l26.316 95.203c1.429 5.17 6.778 8.203 11.949 6.774s8.203-6.779 6.774-11.949l-26.316-95.204c-1.429-5.17-6.779-8.203-11.949-6.773z"/><path d="m73.009 22.443c-5.171 1.429-8.203 6.779-6.774 11.949l10.119 36.608-47.159 13.035-10.119-36.607c-1.429-5.17-6.778-8.203-11.949-6.774s-8.203 6.779-6.774 11.949l26.316 95.203c1.429 5.17 6.778 8.203 11.949 6.774s8.203-6.779 6.774-11.949l-11.022-39.873 47.158-13.036 11.022 39.873c1.429 5.17 6.778 8.203 11.949 6.774s8.203-6.779 6.774-11.949l-26.315-95.203c-1.429-5.17-6.779-8.203-11.949-6.774z"/></g><g fill="#ffe07d"><path d="m477.685 68.003c-3.269-1.866-7.431-.729-9.298 2.54l-34.363 60.19c-1.866 3.269-.729 7.431 2.54 9.298s7.431.729 9.298-2.54l34.363-60.19c1.866-3.269.729-7.431-2.54-9.298z"/><path d="m445.3 57.408c-3.269-1.866-7.431-.729-9.298 2.54l-13.213 23.144-29.815-17.022 13.213-23.144c1.866-3.269.729-7.431-2.54-9.298s-7.431-.729-9.298 2.54l-34.363 60.19c-1.866 3.269-.729 7.431 2.54 9.298 3.269 1.866 7.431.729 9.298-2.54l14.392-25.209 29.815 17.022-14.392 25.209c-1.866 3.269-.729 7.431 2.54 9.298 3.269 1.866 7.431.729 9.298-2.54l34.363-60.19c1.865-3.269.729-7.432-2.54-9.298z"/></g><path d="m347.102 372.84h-35.655c-5.306 0-9.607 4.301-9.607 9.607v30.298l24.941 25.938 29.929-25.938v-30.298c0-5.306-4.302-9.607-9.608-9.607z" fill="#453d81"/><path d="m356.71 412.74v78.68c-17.38 7.45-35.76 13.03-54.87 16.48v-95.16z" fill="#ffddf1"/><path d="m322.79 412.74v90.46c-6.87 1.85-13.86 3.42-20.95 4.7v-95.16z" fill="#ffceec"/></g></svg>