<svg id="Capa_1" enable-background="new 0 0 512 512" height="512" viewBox="0 0 512 512" width="512" xmlns="http://www.w3.org/2000/svg"><g><path d="m319.871 455.492-8.466 14.411c-5.194 8.84-17.977 8.84-23.17 0l-8.467-14.411c-3.527-6.004-8.531-11.008-14.535-14.535l-14.411-8.466c-8.84-5.194-8.84-17.977 0-23.17l14.411-8.466c6.004-3.527 11.008-8.531 14.535-14.535l8.467-14.411c5.194-8.84 17.977-8.84 23.17 0l8.466 14.411c3.528 6.004 8.531 11.008 14.535 14.535l14.411 8.466c8.84 5.194 8.84 17.977 0 23.17l-14.411 8.466c-6.004 3.527-11.008 8.53-14.535 14.535z" fill="#eba188"/><path d="m352.741 100.293h-222.674c-67.086 0-121.469 54.384-121.469 121.469v60.959c0 33.436 13.511 63.715 35.37 85.679 6.961 6.995 9.159 17.438 5.836 26.73-6.632 18.541-15.042 38.019-23.765 54.699-9.251 17.689 7.7 37.81 26.649 31.53 39.809-13.195 80.516-39.609 103.156-67.556 4.918-6.071 12.295-9.613 20.108-9.613h176.789c67.086 0 121.469-54.384 121.469-121.469v-60.959c0-67.085-54.384-121.469-121.469-121.469z" fill="#f6ee86"/><path d="m155.843 413.803c.082-.101.169-.195.252-.294-89.19-74.414-100.273-216.247-71.857-304.264-44.366 18.09-75.64 61.647-75.64 112.517v60.959c0 33.436 13.511 63.715 35.37 85.679 6.961 6.995 9.159 17.438 5.836 26.73-6.632 18.541-15.042 38.019-23.765 54.699-9.251 17.689 7.701 37.81 26.649 31.53 39.808-13.195 80.516-39.609 103.155-67.556z" fill="#efd176"/><g><g fill="#eda1ab"><ellipse cx="155.651" cy="210.605" rx="31.645" ry="25.2"/><ellipse cx="327.177" cy="210.605" rx="31.645" ry="25.2"/></g><g fill="#4e5660"><path d="m189.156 190.683c-4.142 0-7.5-3.358-7.5-7.5 0-4.17-3.393-7.563-7.563-7.563s-7.562 3.393-7.562 7.563c0 4.142-3.358 7.5-7.5 7.5s-7.5-3.358-7.5-7.5c0-12.441 10.121-22.563 22.562-22.563s22.563 10.122 22.563 22.563c0 4.142-3.358 7.5-7.5 7.5z"/><path d="m323.796 190.683c-4.142 0-7.5-3.358-7.5-7.5 0-4.17-3.392-7.563-7.562-7.563s-7.563 3.393-7.563 7.563c0 4.142-3.358 7.5-7.5 7.5s-7.5-3.358-7.5-7.5c0-12.441 10.122-22.563 22.563-22.563s22.562 10.122 22.562 22.563c0 4.142-3.357 7.5-7.5 7.5z"/><path d="m241.414 215.566c-8.291 0-16.176-3.591-21.632-9.852-2.721-3.123-2.396-7.86.727-10.582 3.123-2.721 7.86-2.396 10.582.727 2.606 2.991 6.369 4.707 10.323 4.707s7.716-1.715 10.323-4.707c2.721-3.124 7.459-3.449 10.582-.727 3.123 2.721 3.448 7.459.727 10.582-5.457 6.262-13.341 9.852-21.632 9.852z"/></g></g><path d="m127.715 340.882c-1.667-3.792.055-8.217 3.847-9.885 18.073-7.947 31.619-17.617 46.757-33.38 6.553-6.823 6.336-17.652-.489-24.207-6.809-6.538-17.668-6.319-24.208.489-12.109 12.609-21.823 19.589-35.842 25.752-3.79 1.667-8.217-.055-9.884-3.847-1.667-3.791.055-8.217 3.847-9.884 12.343-5.427 20.181-11.082 31.061-22.411 12.27-12.774 32.644-13.186 45.416-.918 12.804 12.295 13.215 32.61.918 45.415-16.601 17.286-31.532 27.924-51.538 36.721-3.78 1.663-8.212-.041-9.885-3.845z" fill="#efd176"/><path d="m345.228 344.728c-20.005-8.797-34.937-19.435-51.538-36.721-12.296-12.805-11.889-33.119.918-45.416 12.774-12.266 33.147-11.854 45.415.917 10.88 11.33 18.718 16.985 31.062 22.412 3.792 1.667 5.514 6.093 3.847 9.884-1.667 3.792-6.093 5.515-9.884 3.847-14.019-6.164-23.733-13.144-35.843-25.753-6.538-6.807-17.398-7.026-24.207-.488-6.824 6.554-7.044 17.382-.489 24.207 15.138 15.762 28.685 25.433 46.757 33.379 3.792 1.668 5.514 6.093 3.847 9.885-1.67 3.798-6.097 5.512-9.885 3.847z" fill="#efd176"/><path d="m75.68 168.316-8.466 14.411c-5.194 8.84-17.977 8.84-23.17 0l-8.466-14.411c-3.528-6.004-8.531-11.008-14.535-14.535l-14.413-8.466c-8.84-5.194-8.84-17.977 0-23.17l14.411-8.466c6.004-3.528 11.008-8.531 14.535-14.535l8.466-14.411c5.194-8.84 17.977-8.84 23.17 0l8.466 14.411c3.528 6.005 8.531 11.008 14.535 14.535l14.411 8.466c8.84 5.194 8.84 17.977 0 23.17l-14.411 8.466c-6.002 3.528-11.006 8.531-14.533 14.535z" fill="#b39bdb"/><path d="m373.933 97.453-6.38 10.86c-3.914 6.662-13.547 6.662-17.461 0l-6.38-10.86c-2.658-4.525-6.429-8.296-10.954-10.954l-10.86-6.38c-6.662-3.914-6.662-13.547 0-17.461l10.86-6.38c4.525-2.658 8.296-6.429 10.954-10.954l6.38-10.86c3.914-6.662 13.547-6.662 17.461 0l6.38 10.86c2.659 4.525 6.429 8.296 10.954 10.954l10.86 6.38c6.662 3.914 6.662 13.547 0 17.461l-10.86 6.38c-4.525 2.659-8.296 6.429-10.954 10.954z" fill="#e7889d"/><path d="m476.423 210.238-8.466 14.411c-5.194 8.84-17.977 8.84-23.17 0l-8.466-14.411c-3.527-6.004-8.531-11.008-14.535-14.535l-14.411-8.466c-8.84-5.194-8.84-17.977 0-23.17l14.411-8.466c6.005-3.527 11.008-8.531 14.535-14.535l8.466-14.411c5.194-8.84 17.977-8.84 23.17 0l8.466 14.411c3.528 6.005 8.531 11.008 14.535 14.535l14.411 8.466c8.84 5.194 8.84 17.977 0 23.17l-14.411 8.466c-6.004 3.528-11.007 8.531-14.535 14.535z" fill="#a2ddfd"/></g></svg>